<svg width="694" height="481" viewBox="0 0 694 481" fill="none" xmlns="http://www.w3.org/2000/svg">
<mask id="path-1-inside-1" fill="white">
<path d="M520.362 2.55859C519.712 3.42538 518.953 4.02138 518.736 3.85883C518.519 3.75048 516.946 3.37123 515.32 3.04618C511.579 2.39609 510.874 2.72114 508.217 6.56762L506.211 9.49316L504.151 8.46381C502.416 7.54282 501.223 7.43447 496.235 7.54282L490.379 7.70532L489.403 10.685C488.048 15.0733 488.156 16.6986 490.054 19.0823C491.681 21.141 492.114 22.2787 493.253 28.5631C493.632 30.5135 494.825 34.6309 495.855 37.7731C497.374 42.3239 497.699 44.0033 497.482 46.1704C497.102 50.071 495.151 53.8092 493.09 54.6218C492.169 55.0011 488.048 57.3307 483.927 59.8227C472.162 66.8656 471.077 67.2991 471.077 64.8611C471.077 64.3194 470.481 63.1275 469.722 62.2065C468.963 61.3397 467.987 59.3893 467.499 57.8724C466.848 55.5428 466.469 55.1094 464.788 54.5677C463.704 54.1884 461.372 54.0259 459.637 54.1343C457.089 54.2968 456.222 54.6218 455.571 55.5428C455.137 56.1929 454.161 56.7347 453.511 56.7347C451.884 56.7347 449.769 58.4142 448.251 60.8521C446.842 63.1275 446.733 65.0236 447.98 66.2155C449.227 67.4616 449.119 67.895 446.679 70.4413C444.402 72.7708 443.805 74.2336 442.016 81.8182C441.366 84.7437 440.715 86.2607 440.01 86.6399C439.468 86.9108 437.191 87.29 434.968 87.4525C429.871 87.8318 428.57 87.2358 427.431 83.8769C426.13 79.9221 423.148 76.0214 418.539 72.1749C416.154 70.1704 414.148 68.1117 413.985 67.5158C413.822 66.9198 412.847 66.1072 411.816 65.6738C409.377 64.6444 397.34 62.2606 392.46 61.8272C388.99 61.5022 388.665 61.5564 387.418 62.8024C384.544 65.6738 384.219 70.7121 386.171 80.3555C388.014 89.1862 388.99 92.1659 390.725 94.1704C391.81 95.4706 392.243 96.7166 392.46 98.9379C392.731 101.755 392.894 102.026 395.496 104.085C399.997 107.66 400.051 107.877 400.051 118.279C400.051 123.263 399.888 127.218 399.726 127.001C399.563 126.839 398.967 124.78 398.424 122.45C397.882 120.121 396.418 115.787 395.225 112.807C393.978 109.827 392.623 106.089 392.189 104.518C391.81 102.893 390.888 100.78 390.237 99.8047C388.936 97.9627 385.032 95.0914 382.809 94.3871C381.562 94.0079 381.562 94.0079 383.351 93.141C385.629 92.0033 385.954 89.7279 384.382 86.5857C382.972 83.9311 381.4 82.9018 380.153 83.9311C379.502 84.4729 379.394 85.2855 379.61 87.9943C379.827 89.8905 380.207 91.9491 380.586 92.5451C381.074 93.5203 381.074 93.6828 380.478 93.4661C380.044 93.3036 378.797 92.8701 377.713 92.4367L375.652 91.7324V84.8521C375.652 78.6218 375.544 77.8634 374.405 76.1839C373.755 75.1546 372.67 74.1252 372.02 73.8543C371.261 73.4751 370.773 72.6625 370.556 71.3081C370.285 69.7912 369.526 68.6535 367.194 66.5406C365.514 65.0236 363.616 63.6151 362.911 63.4525C362.044 63.2358 361.393 62.4774 361.013 61.2855C360.254 59.0643 358.519 57.7641 356.188 57.7099C354.019 57.6557 352.881 58.6851 352.881 60.7437C352.826 62.2607 352.772 62.3148 352.23 61.3397C351.362 59.7686 350.712 59.4435 348.218 59.4435C346.591 59.4435 345.398 59.8769 343.772 61.0688C341.169 62.9108 340.139 64.7528 339.272 68.7076C338.838 70.5496 338.079 72.1749 336.886 73.4751L335.043 75.4255H328.862C323.386 75.4255 322.41 75.588 321.054 76.5632C318.506 78.4051 317.096 81.8724 317.096 86.369V90.3239L315.199 91.0823C314.168 91.5157 313.03 92.4909 312.65 93.3036C312.108 94.4954 312.325 95.2539 314.819 99.9672C318.181 106.468 320.349 112.699 319.97 115.082C319.807 116.058 319.97 117.574 320.295 118.495C320.783 120.012 320.62 120.5 318.94 123.1C317.909 124.726 316.988 126.08 316.879 126.08C316.771 126.08 315.849 125.213 314.765 124.184C313.68 123.155 312.325 122.288 311.729 122.288C310.59 122.288 308.421 124.184 308.421 125.213C308.313 126.947 306.74 122.342 306.252 119.091C305.222 111.669 302.457 106.523 298.282 104.139C296.873 103.326 295.246 102.243 294.704 101.809C294.216 101.322 290.583 94.6038 286.734 86.8024C282.83 79.0553 278.926 71.7415 278.004 70.658C275.998 68.1659 273.884 68.0034 270.143 70.0079C268.733 70.7663 266.944 71.3622 266.131 71.3622C264.124 71.3622 258.974 72.9333 258.052 73.8002C257.564 74.2877 257.13 76.6173 256.805 80.1929C256.317 85.448 256.425 86.369 257.998 94.1704C260.004 104.139 262.606 114.757 264.016 118.929C264.612 120.717 265.046 123.371 265.046 125.484C264.992 131.823 262.01 142.766 259.787 144.608C258.811 145.367 251.058 147.155 248.401 147.209C246.015 147.209 244.931 145.963 245.256 143.525C245.365 142.441 245.636 140.112 245.799 138.378L246.07 135.236L243.792 134.261C239.021 132.202 239.509 131.985 233.708 137.999C225.412 146.721 224.328 148.401 221.942 156.31C219.611 164.274 219.448 167.416 220.966 173.213C221.563 175.434 222.213 177.981 222.43 178.902C222.756 180.527 222.756 180.527 221.78 178.631C221.183 177.602 220.424 175.489 220.045 174.026C219.286 170.992 217.171 167.796 215.978 167.796C215.544 167.796 214.785 168.446 214.243 169.204C213.484 170.45 213.267 172.617 212.942 182.369C212.725 188.816 212.291 194.775 212.02 195.696L211.532 197.322L210.882 195.751C210.448 194.721 210.339 192.175 210.556 188.166C210.773 184.861 210.665 181.069 210.394 179.714C209.038 173.376 207.412 168.446 206.002 166.712C205.189 165.683 204.213 164.274 203.833 163.57C203.508 162.92 202.857 162.378 202.369 162.378C201.664 162.378 201.664 162.161 202.369 160.861C203.454 158.694 204.321 154.089 204.321 150.297C204.321 146.613 204.104 146.071 202.261 145.096C201.231 144.554 200.634 144.608 198.845 145.475C197.707 146.071 196.731 146.45 196.731 146.396C196.731 146.342 197.11 145.529 197.598 144.608C199.225 141.304 197.381 139.516 191.688 138.866C185.236 138.161 181.007 134.423 182.417 130.739C182.905 129.547 183.555 129.656 183.989 131.01C184.477 132.473 186.971 133.502 191.2 133.99C195.321 134.423 196.297 133.881 199.713 129.222C202.369 125.647 202.695 124.021 201.068 122.559C199.658 121.258 199.713 120.554 201.285 119.091C203.183 117.304 206.165 110.532 206.273 107.66C206.327 106.306 206.869 104.193 207.574 102.893C208.388 101.322 208.659 100.184 208.388 99.1546C207.845 96.9875 206.165 94.8747 204.375 94.1162C203.454 93.737 202.261 92.6534 201.664 91.6241L200.58 89.7821H202.315C204.213 89.7821 206.49 88.4819 206.49 87.3984C206.49 86.4774 203.996 84.2561 200.634 82.1975C198.032 80.6264 197.435 80.4638 194.996 80.7347L192.23 81.0598L193.423 79.8137C194.453 78.7302 194.508 78.3509 194.02 76.9966C192.989 74.3961 190.875 72.0123 189.194 71.6331C187.351 71.2539 184.26 72.6083 184.26 73.8002C184.26 74.3419 183.718 74.6128 182.634 74.6128H181.007V70.3329C181.007 67.9492 181.278 64.807 181.658 63.29C182.254 60.5812 182.254 60.4728 180.736 58.9018C179.923 58.035 177.483 56.4639 175.314 55.3803C171.248 53.3758 170.163 52.0756 170.163 49.2042C170.163 48.3374 169.784 47.3622 169.35 46.983C168.916 46.6038 168.537 45.9537 168.537 45.5745C168.537 44.1659 165.989 43.0823 163.278 43.299C160.729 43.4616 160.675 43.4074 160.838 42.053C161 40.1568 159.862 39.2358 158.073 39.8859C157.314 40.1568 156.554 40.6986 156.338 40.9695C155.904 41.7821 154.874 41.7279 153.735 40.8611C152.868 40.2652 152.868 39.9943 153.681 36.7979C154.765 32.518 154.386 30.5135 152.542 30.8927C151.404 31.0553 151.241 30.9469 151.458 29.9717C151.783 28.5631 151.349 27.913 149.452 27.1004C147.5 26.2336 144.952 22.658 143.488 18.6489C142.349 15.5067 139.476 11.7685 138.229 11.7685C137.849 11.7685 136.982 12.4187 136.168 13.1771L134.813 14.5315L133.349 13.2313C131.397 11.3893 129.77 10.6309 128.686 11.0101C128.198 11.2268 127.222 12.527 126.463 13.9897C125.487 15.9942 124.837 16.6444 123.915 16.6444C122.559 16.6444 119.306 14.6399 116.487 12.0394C113.83 9.54736 112.366 8.95141 110.36 9.38481C106.999 10.0891 105.643 11.1185 105.643 12.9062V14.5857L102.553 14.2606C100.818 14.0439 98.92 13.8814 98.3235 13.8814C97.185 13.8814 94.2571 16.9152 94.2571 18.1071C94.2571 19.1907 98.7031 24.0665 100.384 24.7708C101.577 25.3125 101.739 25.5834 101.251 26.1794C100.492 27.1004 98.5404 27.1545 95.7753 26.3961C94.2571 25.9627 93.3896 25.9626 92.5221 26.4502C89.7028 27.913 89.8112 29.5383 92.9559 32.8972C97.7271 37.9897 103.149 39.5067 108.788 37.2855C110.902 36.4187 112.258 36.3103 116.053 36.527C120.391 36.7979 120.77 36.9062 121.041 38.0981C121.258 38.9108 122.451 39.9943 124.24 40.9695C129.174 43.7325 130.529 44.9243 129.879 45.9537C129.337 46.8205 129.066 46.7663 126.572 45.3577C120.011 41.7279 113.342 41.1862 107.866 43.9492C100.818 47.5248 100.655 50.8295 107.107 57.0598C110.523 60.3645 114.698 63.1816 121.367 66.5406C125.596 68.7076 127.222 69.8453 128.361 71.4164C129.12 72.5541 130.313 73.6918 130.963 73.8543C132.102 74.1794 132.156 74.2877 131.397 76.0214C130.475 78.2426 130.638 78.7302 133.62 83.1185C135.843 86.3148 137.144 90.2697 137.036 93.4661V94.9288L136.494 93.6286C136.222 92.9243 135.138 91.4074 134.162 90.3239C133.132 89.1862 132.156 87.7234 131.939 87.0733C131.614 86.0981 131.289 85.9356 129.987 86.2065C128.198 86.5315 127.927 86.2065 123.481 78.1884C121.692 75.0462 120.824 73.9627 119.74 73.746C118.981 73.6376 117.571 73.2584 116.595 72.9333C114.047 72.1207 113.667 72.7166 113.342 77.5383C113.071 81.6557 112.149 82.7934 112.149 79.0011C112.149 76.509 111.444 75.8589 107.703 74.6128L104.884 73.6918L104.288 70.5496C103.42 66.2697 101.794 65.1862 98.3778 66.4864C97.0765 66.974 96.9681 66.8656 96.9681 65.5112C96.9681 63.5609 94.7451 58.9018 93.1185 57.4932C89.9196 54.6218 81.8411 49.5834 79.2928 48.825C76.6903 48.0665 76.3107 48.1207 73.5998 49.15C69.7503 50.667 65.0875 55.3803 66.0092 56.8431C66.8767 58.1975 66.8225 58.2517 64.8706 58.4684C62.8645 58.6851 61.0753 60.7979 61.0211 63.0733C61.0211 64.2652 61.997 65.4571 65.8465 69.0869C69.7503 72.7166 70.3467 73.4209 69.0454 73.0417C68.1779 72.7708 66.1176 71.7415 64.5995 70.658C61.7801 68.7618 56.5209 66.4864 54.8943 66.4864C53.7557 66.4864 52.075 69.5203 51.3701 72.8792C50.8279 75.6422 50.8822 75.9672 52.5087 79.2719C54.4064 83.1726 60.6415 90.1071 65.6296 93.8453C70.3467 97.3667 68.1237 96.825 62.3765 93.0869C53.9726 87.5609 52.5087 87.1817 49.2556 89.3487C45.135 92.22 44.5928 96.0123 47.629 101.972C51.3701 109.34 56.1414 113.782 62.2681 115.624C65.467 116.599 79.1843 116.979 82.8712 116.22C84.3351 115.895 84.552 115.949 83.7929 116.383C83.2507 116.708 79.347 117.574 75.1179 118.279C63.6236 120.229 62.9729 120.662 66.0092 124.834C67.7442 127.218 69.9129 128.951 71.9732 129.602C73.0034 129.927 73.1118 130.089 72.5154 130.685C72.0817 131.01 70.672 131.769 69.3165 132.31C67.9611 132.798 66.5514 133.394 66.1176 133.556C65.5754 133.773 65.467 133.448 65.7923 132.148C66.2803 129.764 64.5995 126.351 61.4006 123.317C58.6354 120.717 38.195 107.173 34.3997 105.439L32.1767 104.41L30.8754 105.872C29.6826 107.227 29.6284 107.66 29.8453 113.024C30.1164 119.633 30.9297 121.8 34.9961 126.134L37.4359 128.735L34.237 128.626L31.0923 128.518L30.9297 130.252C30.7128 132.256 32.3393 135.669 35.0503 138.974C36.0804 140.22 36.8395 141.358 36.7311 141.466C36.6226 141.629 34.1828 139.624 31.3634 137.078C28.544 134.532 25.0198 131.877 23.5559 131.118C22.0378 130.36 19.9232 129.114 18.8389 128.41C17.7003 127.651 16.5075 127.218 16.1279 127.434C15.3147 127.976 12.4953 134.098 11.3025 137.999C10.4892 140.491 10.0012 141.141 8.26622 142.062C7.0734 142.658 4.742 144.5 3.007 146.179C-0.625658 149.701 -0.896752 151.272 1.81419 152.626C3.11544 153.276 5.50106 153.439 13.8507 153.331L24.315 153.222L28.2187 156.039C31.3634 158.315 32.4478 159.507 33.749 162.053C36.0262 166.387 37.5443 167.416 42.0987 167.687C47.3037 168.012 51.587 167.091 54.0268 165.141C56.0872 163.462 64.2742 159.507 69.1539 157.773L71.919 156.798L75.1721 158.206C78.6964 159.778 79.9434 159.94 82.9254 159.127C86.1243 158.206 87.3171 156.473 87.6425 152.139L87.9136 148.346L89.269 149.267C91.2209 150.568 94.3114 151.651 95.7753 151.651C96.4801 151.651 98.1067 150.893 99.4079 149.972C100.655 149.051 101.848 148.455 102.01 148.672C102.227 148.834 103.203 148.346 104.288 147.534L106.185 146.071L104.721 149.159L103.203 152.247L104.776 153.385C105.697 153.981 107.27 155.389 108.354 156.473C110.631 158.748 113.342 159.615 114.698 158.532C115.402 157.881 115.511 156.96 115.24 152.626C114.969 147.859 115.023 147.642 115.619 149.918C117.517 156.798 119.089 156.419 120.282 148.834C121.15 142.929 121.583 142.333 121.909 146.396C122.126 148.888 122.397 149.701 123.102 149.809C124.132 150.026 125.379 147.534 126.029 144.229C126.68 140.599 127.331 142.387 127.331 147.859C127.385 154.035 127.927 157.231 129.174 158.477C130.529 159.832 132.807 158.694 134.271 155.985C135.734 153.331 136.439 153.168 138.066 155.064L139.259 156.419L137.795 156.96C132.481 158.802 132.156 160.211 136.006 164.924C139.367 169.096 142.566 171.046 145.982 171.155C149.018 171.209 149.723 170.667 150.59 167.687C150.97 166.387 151.783 164.437 152.38 163.245L153.41 161.186L154.332 162.974C155.47 165.249 157.259 165.629 158.452 163.895C159.211 162.811 159.428 162.757 159.862 163.462C160.187 163.895 160.567 164.87 160.729 165.629C161.272 168.067 161.868 168.608 164.796 169.204C167.019 169.638 167.452 169.909 166.639 170.179C163.766 171.263 162.79 171.751 160.946 173.213C158.561 175.055 141.319 185.24 137.036 187.245C134.813 188.328 132.264 190.495 127.276 195.48C123.589 199.272 119.523 202.848 118.276 203.498C115.89 204.69 114.318 206.911 114.318 209.024C114.318 209.999 114.589 210.107 115.782 209.945C116.649 209.782 117.734 209.457 118.276 209.24C119.577 208.699 119.523 210.324 118.113 213.358C117.246 215.362 117.192 215.85 117.788 216.5C118.818 217.475 121.421 216.608 124.945 214.116C128.198 211.787 129.608 211.732 133.62 213.899C140.072 217.258 146.144 218.938 152.271 218.938C155.85 218.938 156.717 218.721 159.591 217.204C161.38 216.229 164.742 213.899 167.019 211.949C169.296 209.999 171.465 208.428 171.79 208.428C172.712 208.428 172.061 211.082 169.621 217.15C168.483 220.021 167.29 223.651 166.964 225.276C166.639 226.902 166.097 228.581 165.826 229.015C165.067 230.261 158.127 229.99 154.44 228.527C152.813 227.823 149.506 227.118 147.12 226.902C144.084 226.577 141.482 225.927 138.554 224.626L134.271 222.784L127.222 224.247C123.373 225.06 118.872 226.36 117.192 227.118C115.565 227.823 113.993 228.31 113.722 228.148C113.451 227.985 113.234 226.902 113.234 225.71C113.234 223.543 111.77 219.967 110.414 218.83C109.384 218.017 107.758 219.155 105.589 222.134C104.559 223.543 102.878 224.897 101.143 225.764C98.6489 226.956 98.3236 227.281 98.432 228.69L98.5404 230.206L95.6126 229.827C93.2812 229.556 92.3053 229.719 90.5161 230.586C87.7509 231.994 87.534 231.994 85.9617 230.423C85.2026 229.665 83.5761 228.798 82.329 228.473C77.9373 227.281 75.8228 229.394 75.8228 234.92C75.8228 239.2 74.7384 241.421 73.9793 238.604C73.8167 237.954 72.895 236.491 71.9732 235.353C70.5093 233.565 70.0214 233.295 68.8286 233.62C68.0695 233.782 65.8465 234.27 63.8946 234.703C60.75 235.353 60.1536 235.732 58.3101 237.899C57.1173 239.254 55.7618 240.392 55.2197 240.392C54.7317 240.392 53.5931 240.933 52.7256 241.583C49.7978 243.913 42.2614 242.613 40.5806 239.579C40.0926 238.658 39.3336 237.899 38.8998 237.791C38.4661 237.737 35.8093 238.766 32.99 240.121C30.1706 241.529 26.7006 242.884 25.1825 243.155C20.7365 243.967 20.7365 244.509 25.4536 254.477C27.1886 258.216 28.6525 261.791 28.6525 262.441C28.6525 264.987 29.6826 266.288 33.3695 268.292C36.9479 270.297 37.219 270.351 42.0987 270.243C44.8639 270.188 47.6832 269.918 48.3881 269.647C49.1472 269.376 50.34 267.805 51.4786 265.692L53.2678 262.17L59.015 261.954C64.4911 261.791 64.8164 261.737 67.2562 259.949L69.8045 258.107L74.9011 260.057C79.5639 261.845 85.0942 263.091 91.8173 263.958C97.4561 264.662 109.113 267.046 110.577 267.805C112.746 268.888 113.884 268.78 118.493 266.938C120.716 266.017 122.722 265.313 122.885 265.313C123.644 265.313 123.481 268.509 122.722 269.105C122.288 269.484 121.909 270.188 121.909 270.73C121.909 271.705 124.891 274.685 126.3 275.173C127.276 275.498 126.192 279.019 124.349 281.782C123.589 282.866 122.993 284.057 122.993 284.383C122.993 284.708 123.752 286.333 124.674 287.958C125.65 289.692 126.734 292.942 127.385 295.868C128.849 302.802 129.12 303.236 131.343 303.236C133.674 303.236 134.108 303.832 133.295 306.27C132.698 308.003 132.807 308.491 134.542 312.175C137.253 317.863 138.554 318.243 145.331 315.696C148.151 314.667 148.53 314.342 149.018 312.5C149.506 310.55 152.488 307.082 153.139 307.678C153.301 307.841 152.922 308.978 152.325 310.225C150.97 312.879 149.398 317.051 148.205 321.276C147.337 324.202 147.337 324.581 148.259 327.019L149.181 329.674L145.331 334.116C143.162 336.608 141.427 338.775 141.427 338.992C141.427 339.967 143.162 340.509 147.934 341.105C153.844 341.809 155.687 341.484 160.079 339.1L163.115 337.475L160.838 340.184C157.205 344.41 156.5 345.439 155.795 347.552C154.928 349.936 155.47 351.615 157.205 351.994C157.91 352.157 158.777 352.915 159.157 353.62C159.537 354.378 160.35 355.407 160.946 355.895C162.031 356.762 162.031 356.924 161.217 358.441C160.784 359.362 159.916 360.337 159.374 360.662C157.802 361.475 152.976 361.313 151.133 360.337C148.693 359.091 146.632 359.525 146.416 361.313C146.253 362.504 146.632 363.046 148.584 364.292C150.862 365.809 150.916 365.809 149.452 365.972C146.578 366.297 145.331 370.36 147.175 373.069C147.934 374.098 147.934 374.423 147.337 374.802C146.904 375.073 146.144 375.29 145.602 375.29C144.518 375.29 140.831 377.078 138.554 378.703C137.09 379.678 136.765 379.732 134.054 379.082C131.234 378.378 131.072 378.432 127.602 380.112C125.596 381.087 123.21 382.712 122.18 383.741C120.228 385.638 118.384 386.071 116.433 384.988C115.836 384.717 114.21 382.116 112.854 379.299C109.276 372.039 105.914 368.301 103.529 369.06C102.282 369.439 101.631 370.902 100.492 376.103C99.9501 378.486 99.0826 381.358 98.4862 382.55C97.2392 384.933 97.4561 386.504 99.4621 389.538L100.818 391.651L98.92 395.714C96.7512 400.211 96.6428 401.078 97.8356 402.649C98.4862 403.516 98.5946 404.599 98.2693 407.796C97.7814 413.701 97.9982 413.863 106.727 413.267C113.179 412.834 115.619 412.292 121.529 409.963C124.023 408.987 124.186 408.987 127.764 410.017C136.06 412.401 149.886 412.238 157.856 409.638L162.464 408.121L164.47 409.746C165.555 410.613 167.073 411.805 167.778 412.346C169.459 413.755 174.338 413.701 181.82 412.238C188.706 410.829 190.116 410.288 190.767 408.662C191.146 407.633 191.688 407.308 193.315 407.146C197.435 406.82 200.146 407.633 204.647 410.613C207.032 412.184 211.749 414.947 215.111 416.735C225.033 422.044 234.413 429.52 250.407 444.906C258.16 452.383 263.745 456.5 268.787 458.504C271.227 459.425 273.45 459.75 279.956 460.021C289.499 460.455 294.324 461.051 297.957 462.297C301.102 463.38 316.825 470.315 326.91 475.136C336.994 479.904 337.482 480.067 341.332 479.254C347.242 478.062 348.218 478.062 352.826 479.525C360.797 482.017 363.345 481.583 387.797 473.349C415.612 464.03 416.804 463.164 424.449 446.261C426.564 441.656 428.678 437.051 429.221 436.021C431.444 431.687 438.167 427.624 448.089 424.699C455.3 422.532 461.806 421.502 474.059 420.527C488.861 419.335 499.705 417.656 501.332 416.355C501.711 415.976 503.175 413.809 504.53 411.48C505.832 409.204 509.519 404.057 512.663 400.103C515.754 396.148 518.953 391.76 519.657 390.351C520.362 388.942 522.26 386.721 524.049 385.204C525.784 383.796 531.314 378.432 536.411 373.34C546.062 363.588 549.152 361.15 553.382 359.741C554.791 359.254 557.882 357.52 560.267 355.787C562.653 354.107 565.201 352.374 565.852 352.048C568.996 350.369 573.822 349.177 581.63 348.148C590.955 346.902 592.148 346.522 591.877 344.789C591.66 343.326 594.425 340.076 595.889 340.076C596.431 340.076 597.353 339.588 597.949 338.992L599.034 337.908L600.389 339.317C601.148 340.13 601.636 340.942 601.474 341.159C601.311 341.376 599.739 341.701 597.895 341.809C594.425 342.08 592.853 343.109 593.178 344.951C593.341 345.601 594.317 345.764 598.492 345.764C606.136 345.764 608.685 345.222 609.498 343.434C609.823 342.622 610.908 341.051 611.884 339.967C613.456 338.125 613.619 337.746 613.293 335.308C612.643 329.62 616.167 326.423 631.077 319.489C634.601 317.863 635.74 316.455 636.716 312.446C637.149 310.495 637.854 307.678 638.288 306.215C638.722 304.699 639.21 302.586 639.427 301.448C639.644 300.094 640.619 298.468 642.246 296.626C647.831 290.342 649.349 285.845 646.529 284.003C644.903 282.92 643.927 283.353 642.138 285.899C641.379 287.037 638.939 289.692 636.77 291.75C632.595 295.814 631.131 296.247 629.884 293.918C629.017 292.292 629.613 291.534 632.812 290.071C636.065 288.608 640.023 285.304 640.511 283.678C640.728 283.082 640.565 282.27 640.24 281.836C639.644 281.132 640.294 281.024 644.794 281.024C648.969 281.024 650.108 280.861 650.325 280.211C650.921 278.694 650.054 276.906 648.047 275.552C646.963 274.848 645.174 273.006 644.089 271.543L642.138 268.834L644.361 270.568C649.511 274.631 653.415 274.848 660.03 271.597C664.259 269.538 665.885 267.642 666.536 264.121C666.807 262.712 666.59 261.899 665.506 260.491C663.825 258.27 663.608 256.428 665.072 256.807C668.922 257.89 669.843 257.782 673.151 255.615C676.892 253.177 677.434 252.581 676.621 251.552C676.133 251.01 676.458 250.36 677.922 248.897C679.277 247.543 679.82 246.513 679.82 245.267C679.82 243.155 678.518 240.825 676.675 239.741C675.374 238.929 675.374 238.929 678.356 238.55C681.5 238.116 684.97 236.274 684.97 234.974C684.97 234.595 683.723 233.62 682.205 232.807C679.006 231.182 674.723 228.094 670.982 224.843C668.163 222.351 667.675 222.134 662.47 221.484C659.054 221.105 659 221.051 660.572 220.401C661.494 220.076 662.47 219.371 662.849 218.884C663.446 218.071 663.717 218.071 665.831 218.884C667.132 219.371 670.114 221.376 672.5 223.326C677.597 227.498 679.44 228.256 682.368 227.389C685.621 226.468 688.495 223.489 688.495 220.997C688.495 220.292 689.362 218.884 690.446 217.746C694.079 214.008 694.296 212.978 692.886 206.802C692.615 205.448 692.344 203.118 692.29 201.602C692.29 195.859 689.796 195.588 686.597 201.006C685.404 203.01 684.266 204.635 684.103 204.635C683.181 204.635 683.127 202.739 683.994 201.818C684.645 201.06 684.97 199.868 684.97 198.026C684.97 195.859 684.699 195.155 683.669 194.288C682.964 193.746 681.771 193.258 680.958 193.258H679.549L681.338 191.85C683.669 190.008 685.404 186.541 685.458 183.615C685.513 181.665 685.242 181.015 683.994 179.931C681.717 177.981 678.518 177.331 675.048 178.089C673.422 178.414 672.012 178.577 671.849 178.414C671.633 178.252 671.795 178.089 672.121 178.089C673.151 178.089 676.024 175.326 676.024 174.351C676.024 173.809 675.536 172.942 674.94 172.401C673.801 171.371 673.801 171.371 676.133 170.288C679.169 168.825 680.253 166.766 680.958 161.24C681.229 158.748 681.717 155.444 681.988 153.981C682.314 152.03 682.259 150.947 681.771 150.188C681.392 149.592 680.85 148.13 680.47 146.938C679.765 144.392 675.265 139.082 673.91 139.082C673.368 139.082 672.392 139.678 671.687 140.437C670.169 142.062 669.518 142.17 669.518 140.816C669.518 140.274 668.922 139.245 668.163 138.541C667.404 137.836 666.807 136.861 666.807 136.374C666.807 134.748 664.693 132.635 662.415 131.985C660.735 131.444 659.325 131.444 656.072 131.985C652.439 132.581 651.572 132.527 649.457 131.769C646.312 130.631 635.415 123.371 633.3 120.988L631.673 119.091L632.704 114.92C633.951 110.206 633.896 107.769 632.541 106.956C631.836 106.468 630.264 107.01 625.221 109.448C619.637 112.103 609.173 115.949 604.293 117.087L602.829 117.466L603.696 115.407C604.293 114.107 604.564 112.103 604.51 109.99C604.401 106.793 604.51 106.468 606.516 104.301C609.769 100.617 611.45 98.1794 613.293 94.2246C615.679 89.2404 615.679 84.9062 613.293 78.2426C612.371 75.6422 611.016 72.4999 610.311 71.2539C608.251 67.4616 604.835 67.1365 601.907 70.3871C601.094 71.3081 599.739 72.7708 598.98 73.5835L597.516 75.1004L595.509 74.071C594.371 73.4751 591.66 72.6083 589.491 72.1207L585.479 71.2539V67.7866C585.479 63.7234 585.099 63.3984 581.792 64.5361C579.623 65.2945 579.515 65.2945 579.515 64.3194C579.515 63.5609 580.545 62.8024 582.985 61.6105C591.064 57.7641 594.967 48.7708 591.226 42.4322C590.413 41.0236 589.817 39.7776 589.925 39.6151C590.033 39.5067 591.66 38.4232 593.503 37.2313C595.672 35.8769 597.19 34.4142 597.787 33.2223C598.383 31.922 599.359 31.0552 600.877 30.4593C610.203 26.5586 614.594 23.6331 613.835 21.737C613.456 20.7076 612.046 20.7618 606.136 22.3329C603.317 23.0913 600.552 23.6873 600.064 23.6873C599.576 23.6873 598.112 22.8205 596.865 21.7911L594.642 19.895L592.582 20.9243C588.244 23.1455 582.063 29.9175 578.322 36.5812C576.316 40.1026 574.69 40.9695 569.864 41.1862C567.749 41.2404 565.689 41.6196 565.201 42.053C563.629 43.3532 563.304 46.062 564.171 50.5044C564.605 52.834 564.822 54.7844 564.659 54.9469C564.008 55.6512 561.514 54.351 558.153 51.588C555.333 49.3126 553.598 48.3374 550.616 47.4706C548.448 46.8747 546.387 46.2788 546.062 46.1162C545.682 46.0079 545.357 45.1952 545.357 44.3284C545.357 43.4074 544.869 42.2697 544.273 41.6738L543.188 40.6444L544.815 36.7979C547.472 30.4593 546.821 26.3419 542.646 23.2539C540.477 21.6286 534.513 18.8114 533.266 18.8114C531.423 18.8114 530.61 13.8272 531.911 10.9017C532.507 9.60146 532.453 9.38476 531.586 8.84301C528.278 6.89267 524.103 3.42543 523.67 2.28774C522.965 0.499944 521.772 0.554094 520.362 2.55859ZM163.603 303.019C162.302 304.428 159.374 306.216 158.994 305.836C158.723 305.565 163.766 301.665 164.416 301.665C164.687 301.611 164.362 302.261 163.603 303.019ZM176.941 327.615C177.103 327.886 177.049 328.157 176.724 328.157C176.453 328.157 174.935 329.24 173.362 330.595C169.404 334.008 167.181 333.899 170.868 330.486C174.176 327.398 176.182 326.423 176.941 327.615ZM183.718 329.836C183.718 330.107 183.067 329.999 182.254 329.674C179.869 328.644 179.543 328.157 181.712 328.807C182.851 329.132 183.718 329.62 183.718 329.836ZM587.702 339.155C588.515 339.913 589.274 341.159 589.383 341.863L589.654 343.218L584.015 343.272L578.376 343.326L578.539 341.863C578.647 340.834 579.081 340.292 579.786 340.184C581.413 339.913 582.226 338.559 581.684 337.096L581.196 335.85L583.744 336.825C585.154 337.367 586.943 338.396 587.702 339.155Z"/>
</mask>
<path d="M520.362 2.55859C519.712 3.42538 518.953 4.02138 518.736 3.85883C518.519 3.75048 516.946 3.37123 515.32 3.04618C511.579 2.39609 510.874 2.72114 508.217 6.56762L506.211 9.49316L504.151 8.46381C502.416 7.54282 501.223 7.43447 496.235 7.54282L490.379 7.70532L489.403 10.685C488.048 15.0733 488.156 16.6986 490.054 19.0823C491.681 21.141 492.114 22.2787 493.253 28.5631C493.632 30.5135 494.825 34.6309 495.855 37.7731C497.374 42.3239 497.699 44.0033 497.482 46.1704C497.102 50.071 495.151 53.8092 493.09 54.6218C492.169 55.0011 488.048 57.3307 483.927 59.8227C472.162 66.8656 471.077 67.2991 471.077 64.8611C471.077 64.3194 470.481 63.1275 469.722 62.2065C468.963 61.3397 467.987 59.3893 467.499 57.8724C466.848 55.5428 466.469 55.1094 464.788 54.5677C463.704 54.1884 461.372 54.0259 459.637 54.1343C457.089 54.2968 456.222 54.6218 455.571 55.5428C455.137 56.1929 454.161 56.7347 453.511 56.7347C451.884 56.7347 449.769 58.4142 448.251 60.8521C446.842 63.1275 446.733 65.0236 447.98 66.2155C449.227 67.4616 449.119 67.895 446.679 70.4413C444.402 72.7708 443.805 74.2336 442.016 81.8182C441.366 84.7437 440.715 86.2607 440.01 86.6399C439.468 86.9108 437.191 87.29 434.968 87.4525C429.871 87.8318 428.57 87.2358 427.431 83.8769C426.13 79.9221 423.148 76.0214 418.539 72.1749C416.154 70.1704 414.148 68.1117 413.985 67.5158C413.822 66.9198 412.847 66.1072 411.816 65.6738C409.377 64.6444 397.34 62.2606 392.46 61.8272C388.99 61.5022 388.665 61.5564 387.418 62.8024C384.544 65.6738 384.219 70.7121 386.171 80.3555C388.014 89.1862 388.99 92.1659 390.725 94.1704C391.81 95.4706 392.243 96.7166 392.46 98.9379C392.731 101.755 392.894 102.026 395.496 104.085C399.997 107.66 400.051 107.877 400.051 118.279C400.051 123.263 399.888 127.218 399.726 127.001C399.563 126.839 398.967 124.78 398.424 122.45C397.882 120.121 396.418 115.787 395.225 112.807C393.978 109.827 392.623 106.089 392.189 104.518C391.81 102.893 390.888 100.78 390.237 99.8047C388.936 97.9627 385.032 95.0914 382.809 94.3871C381.562 94.0079 381.562 94.0079 383.351 93.141C385.629 92.0033 385.954 89.7279 384.382 86.5857C382.972 83.9311 381.4 82.9018 380.153 83.9311C379.502 84.4729 379.394 85.2855 379.61 87.9943C379.827 89.8905 380.207 91.9491 380.586 92.5451C381.074 93.5203 381.074 93.6828 380.478 93.4661C380.044 93.3036 378.797 92.8701 377.713 92.4367L375.652 91.7324V84.8521C375.652 78.6218 375.544 77.8634 374.405 76.1839C373.755 75.1546 372.67 74.1252 372.02 73.8543C371.261 73.4751 370.773 72.6625 370.556 71.3081C370.285 69.7912 369.526 68.6535 367.194 66.5406C365.514 65.0236 363.616 63.6151 362.911 63.4525C362.044 63.2358 361.393 62.4774 361.013 61.2855C360.254 59.0643 358.519 57.7641 356.188 57.7099C354.019 57.6557 352.881 58.6851 352.881 60.7437C352.826 62.2607 352.772 62.3148 352.23 61.3397C351.362 59.7686 350.712 59.4435 348.218 59.4435C346.591 59.4435 345.398 59.8769 343.772 61.0688C341.169 62.9108 340.139 64.7528 339.272 68.7076C338.838 70.5496 338.079 72.1749 336.886 73.4751L335.043 75.4255H328.862C323.386 75.4255 322.41 75.588 321.054 76.5632C318.506 78.4051 317.096 81.8724 317.096 86.369V90.3239L315.199 91.0823C314.168 91.5157 313.03 92.4909 312.65 93.3036C312.108 94.4954 312.325 95.2539 314.819 99.9672C318.181 106.468 320.349 112.699 319.97 115.082C319.807 116.058 319.97 117.574 320.295 118.495C320.783 120.012 320.62 120.5 318.94 123.1C317.909 124.726 316.988 126.08 316.879 126.08C316.771 126.08 315.849 125.213 314.765 124.184C313.68 123.155 312.325 122.288 311.729 122.288C310.59 122.288 308.421 124.184 308.421 125.213C308.313 126.947 306.74 122.342 306.252 119.091C305.222 111.669 302.457 106.523 298.282 104.139C296.873 103.326 295.246 102.243 294.704 101.809C294.216 101.322 290.583 94.6038 286.734 86.8024C282.83 79.0553 278.926 71.7415 278.004 70.658C275.998 68.1659 273.884 68.0034 270.143 70.0079C268.733 70.7663 266.944 71.3622 266.131 71.3622C264.124 71.3622 258.974 72.9333 258.052 73.8002C257.564 74.2877 257.13 76.6173 256.805 80.1929C256.317 85.448 256.425 86.369 257.998 94.1704C260.004 104.139 262.606 114.757 264.016 118.929C264.612 120.717 265.046 123.371 265.046 125.484C264.992 131.823 262.01 142.766 259.787 144.608C258.811 145.367 251.058 147.155 248.401 147.209C246.015 147.209 244.931 145.963 245.256 143.525C245.365 142.441 245.636 140.112 245.799 138.378L246.07 135.236L243.792 134.261C239.021 132.202 239.509 131.985 233.708 137.999C225.412 146.721 224.328 148.401 221.942 156.31C219.611 164.274 219.448 167.416 220.966 173.213C221.563 175.434 222.213 177.981 222.43 178.902C222.756 180.527 222.756 180.527 221.78 178.631C221.183 177.602 220.424 175.489 220.045 174.026C219.286 170.992 217.171 167.796 215.978 167.796C215.544 167.796 214.785 168.446 214.243 169.204C213.484 170.45 213.267 172.617 212.942 182.369C212.725 188.816 212.291 194.775 212.02 195.696L211.532 197.322L210.882 195.751C210.448 194.721 210.339 192.175 210.556 188.166C210.773 184.861 210.665 181.069 210.394 179.714C209.038 173.376 207.412 168.446 206.002 166.712C205.189 165.683 204.213 164.274 203.833 163.57C203.508 162.92 202.857 162.378 202.369 162.378C201.664 162.378 201.664 162.161 202.369 160.861C203.454 158.694 204.321 154.089 204.321 150.297C204.321 146.613 204.104 146.071 202.261 145.096C201.231 144.554 200.634 144.608 198.845 145.475C197.707 146.071 196.731 146.45 196.731 146.396C196.731 146.342 197.11 145.529 197.598 144.608C199.225 141.304 197.381 139.516 191.688 138.866C185.236 138.161 181.007 134.423 182.417 130.739C182.905 129.547 183.555 129.656 183.989 131.01C184.477 132.473 186.971 133.502 191.2 133.99C195.321 134.423 196.297 133.881 199.713 129.222C202.369 125.647 202.695 124.021 201.068 122.559C199.658 121.258 199.713 120.554 201.285 119.091C203.183 117.304 206.165 110.532 206.273 107.66C206.327 106.306 206.869 104.193 207.574 102.893C208.388 101.322 208.659 100.184 208.388 99.1546C207.845 96.9875 206.165 94.8747 204.375 94.1162C203.454 93.737 202.261 92.6534 201.664 91.6241L200.58 89.7821H202.315C204.213 89.7821 206.49 88.4819 206.49 87.3984C206.49 86.4774 203.996 84.2561 200.634 82.1975C198.032 80.6264 197.435 80.4638 194.996 80.7347L192.23 81.0598L193.423 79.8137C194.453 78.7302 194.508 78.3509 194.02 76.9966C192.989 74.3961 190.875 72.0123 189.194 71.6331C187.351 71.2539 184.26 72.6083 184.26 73.8002C184.26 74.3419 183.718 74.6128 182.634 74.6128H181.007V70.3329C181.007 67.9492 181.278 64.807 181.658 63.29C182.254 60.5812 182.254 60.4728 180.736 58.9018C179.923 58.035 177.483 56.4639 175.314 55.3803C171.248 53.3758 170.163 52.0756 170.163 49.2042C170.163 48.3374 169.784 47.3622 169.35 46.983C168.916 46.6038 168.537 45.9537 168.537 45.5745C168.537 44.1659 165.989 43.0823 163.278 43.299C160.729 43.4616 160.675 43.4074 160.838 42.053C161 40.1568 159.862 39.2358 158.073 39.8859C157.314 40.1568 156.554 40.6986 156.338 40.9695C155.904 41.7821 154.874 41.7279 153.735 40.8611C152.868 40.2652 152.868 39.9943 153.681 36.7979C154.765 32.518 154.386 30.5135 152.542 30.8927C151.404 31.0553 151.241 30.9469 151.458 29.9717C151.783 28.5631 151.349 27.913 149.452 27.1004C147.5 26.2336 144.952 22.658 143.488 18.6489C142.349 15.5067 139.476 11.7685 138.229 11.7685C137.849 11.7685 136.982 12.4187 136.168 13.1771L134.813 14.5315L133.349 13.2313C131.397 11.3893 129.77 10.6309 128.686 11.0101C128.198 11.2268 127.222 12.527 126.463 13.9897C125.487 15.9942 124.837 16.6444 123.915 16.6444C122.559 16.6444 119.306 14.6399 116.487 12.0394C113.83 9.54736 112.366 8.95141 110.36 9.38481C106.999 10.0891 105.643 11.1185 105.643 12.9062V14.5857L102.553 14.2606C100.818 14.0439 98.92 13.8814 98.3235 13.8814C97.185 13.8814 94.2571 16.9152 94.2571 18.1071C94.2571 19.1907 98.7031 24.0665 100.384 24.7708C101.577 25.3125 101.739 25.5834 101.251 26.1794C100.492 27.1004 98.5404 27.1545 95.7753 26.3961C94.2571 25.9627 93.3896 25.9626 92.5221 26.4502C89.7028 27.913 89.8112 29.5383 92.9559 32.8972C97.7271 37.9897 103.149 39.5067 108.788 37.2855C110.902 36.4187 112.258 36.3103 116.053 36.527C120.391 36.7979 120.77 36.9062 121.041 38.0981C121.258 38.9108 122.451 39.9943 124.24 40.9695C129.174 43.7325 130.529 44.9243 129.879 45.9537C129.337 46.8205 129.066 46.7663 126.572 45.3577C120.011 41.7279 113.342 41.1862 107.866 43.9492C100.818 47.5248 100.655 50.8295 107.107 57.0598C110.523 60.3645 114.698 63.1816 121.367 66.5406C125.596 68.7076 127.222 69.8453 128.361 71.4164C129.12 72.5541 130.313 73.6918 130.963 73.8543C132.102 74.1794 132.156 74.2877 131.397 76.0214C130.475 78.2426 130.638 78.7302 133.62 83.1185C135.843 86.3148 137.144 90.2697 137.036 93.4661V94.9288L136.494 93.6286C136.222 92.9243 135.138 91.4074 134.162 90.3239C133.132 89.1862 132.156 87.7234 131.939 87.0733C131.614 86.0981 131.289 85.9356 129.987 86.2065C128.198 86.5315 127.927 86.2065 123.481 78.1884C121.692 75.0462 120.824 73.9627 119.74 73.746C118.981 73.6376 117.571 73.2584 116.595 72.9333C114.047 72.1207 113.667 72.7166 113.342 77.5383C113.071 81.6557 112.149 82.7934 112.149 79.0011C112.149 76.509 111.444 75.8589 107.703 74.6128L104.884 73.6918L104.288 70.5496C103.42 66.2697 101.794 65.1862 98.3778 66.4864C97.0765 66.974 96.9681 66.8656 96.9681 65.5112C96.9681 63.5609 94.7451 58.9018 93.1185 57.4932C89.9196 54.6218 81.8411 49.5834 79.2928 48.825C76.6903 48.0665 76.3107 48.1207 73.5998 49.15C69.7503 50.667 65.0875 55.3803 66.0092 56.8431C66.8767 58.1975 66.8225 58.2517 64.8706 58.4684C62.8645 58.6851 61.0753 60.7979 61.0211 63.0733C61.0211 64.2652 61.997 65.4571 65.8465 69.0869C69.7503 72.7166 70.3467 73.4209 69.0454 73.0417C68.1779 72.7708 66.1176 71.7415 64.5995 70.658C61.7801 68.7618 56.5209 66.4864 54.8943 66.4864C53.7557 66.4864 52.075 69.5203 51.3701 72.8792C50.8279 75.6422 50.8822 75.9672 52.5087 79.2719C54.4064 83.1726 60.6415 90.1071 65.6296 93.8453C70.3467 97.3667 68.1237 96.825 62.3765 93.0869C53.9726 87.5609 52.5087 87.1817 49.2556 89.3487C45.135 92.22 44.5928 96.0123 47.629 101.972C51.3701 109.34 56.1414 113.782 62.2681 115.624C65.467 116.599 79.1843 116.979 82.8712 116.22C84.3351 115.895 84.552 115.949 83.7929 116.383C83.2507 116.708 79.347 117.574 75.1179 118.279C63.6236 120.229 62.9729 120.662 66.0092 124.834C67.7442 127.218 69.9129 128.951 71.9732 129.602C73.0034 129.927 73.1118 130.089 72.5154 130.685C72.0817 131.01 70.672 131.769 69.3165 132.31C67.9611 132.798 66.5514 133.394 66.1176 133.556C65.5754 133.773 65.467 133.448 65.7923 132.148C66.2803 129.764 64.5995 126.351 61.4006 123.317C58.6354 120.717 38.195 107.173 34.3997 105.439L32.1767 104.41L30.8754 105.872C29.6826 107.227 29.6284 107.66 29.8453 113.024C30.1164 119.633 30.9297 121.8 34.9961 126.134L37.4359 128.735L34.237 128.626L31.0923 128.518L30.9297 130.252C30.7128 132.256 32.3393 135.669 35.0503 138.974C36.0804 140.22 36.8395 141.358 36.7311 141.466C36.6226 141.629 34.1828 139.624 31.3634 137.078C28.544 134.532 25.0198 131.877 23.5559 131.118C22.0378 130.36 19.9232 129.114 18.8389 128.41C17.7003 127.651 16.5075 127.218 16.1279 127.434C15.3147 127.976 12.4953 134.098 11.3025 137.999C10.4892 140.491 10.0012 141.141 8.26622 142.062C7.0734 142.658 4.742 144.5 3.007 146.179C-0.625658 149.701 -0.896752 151.272 1.81419 152.626C3.11544 153.276 5.50106 153.439 13.8507 153.331L24.315 153.222L28.2187 156.039C31.3634 158.315 32.4478 159.507 33.749 162.053C36.0262 166.387 37.5443 167.416 42.0987 167.687C47.3037 168.012 51.587 167.091 54.0268 165.141C56.0872 163.462 64.2742 159.507 69.1539 157.773L71.919 156.798L75.1721 158.206C78.6964 159.778 79.9434 159.94 82.9254 159.127C86.1243 158.206 87.3171 156.473 87.6425 152.139L87.9136 148.346L89.269 149.267C91.2209 150.568 94.3114 151.651 95.7753 151.651C96.4801 151.651 98.1067 150.893 99.4079 149.972C100.655 149.051 101.848 148.455 102.01 148.672C102.227 148.834 103.203 148.346 104.288 147.534L106.185 146.071L104.721 149.159L103.203 152.247L104.776 153.385C105.697 153.981 107.27 155.389 108.354 156.473C110.631 158.748 113.342 159.615 114.698 158.532C115.402 157.881 115.511 156.96 115.24 152.626C114.969 147.859 115.023 147.642 115.619 149.918C117.517 156.798 119.089 156.419 120.282 148.834C121.15 142.929 121.583 142.333 121.909 146.396C122.126 148.888 122.397 149.701 123.102 149.809C124.132 150.026 125.379 147.534 126.029 144.229C126.68 140.599 127.331 142.387 127.331 147.859C127.385 154.035 127.927 157.231 129.174 158.477C130.529 159.832 132.807 158.694 134.271 155.985C135.734 153.331 136.439 153.168 138.066 155.064L139.259 156.419L137.795 156.96C132.481 158.802 132.156 160.211 136.006 164.924C139.367 169.096 142.566 171.046 145.982 171.155C149.018 171.209 149.723 170.667 150.59 167.687C150.97 166.387 151.783 164.437 152.38 163.245L153.41 161.186L154.332 162.974C155.47 165.249 157.259 165.629 158.452 163.895C159.211 162.811 159.428 162.757 159.862 163.462C160.187 163.895 160.567 164.87 160.729 165.629C161.272 168.067 161.868 168.608 164.796 169.204C167.019 169.638 167.452 169.909 166.639 170.179C163.766 171.263 162.79 171.751 160.946 173.213C158.561 175.055 141.319 185.24 137.036 187.245C134.813 188.328 132.264 190.495 127.276 195.48C123.589 199.272 119.523 202.848 118.276 203.498C115.89 204.69 114.318 206.911 114.318 209.024C114.318 209.999 114.589 210.107 115.782 209.945C116.649 209.782 117.734 209.457 118.276 209.24C119.577 208.699 119.523 210.324 118.113 213.358C117.246 215.362 117.192 215.85 117.788 216.5C118.818 217.475 121.421 216.608 124.945 214.116C128.198 211.787 129.608 211.732 133.62 213.899C140.072 217.258 146.144 218.938 152.271 218.938C155.85 218.938 156.717 218.721 159.591 217.204C161.38 216.229 164.742 213.899 167.019 211.949C169.296 209.999 171.465 208.428 171.79 208.428C172.712 208.428 172.061 211.082 169.621 217.15C168.483 220.021 167.29 223.651 166.964 225.276C166.639 226.902 166.097 228.581 165.826 229.015C165.067 230.261 158.127 229.99 154.44 228.527C152.813 227.823 149.506 227.118 147.12 226.902C144.084 226.577 141.482 225.927 138.554 224.626L134.271 222.784L127.222 224.247C123.373 225.06 118.872 226.36 117.192 227.118C115.565 227.823 113.993 228.31 113.722 228.148C113.451 227.985 113.234 226.902 113.234 225.71C113.234 223.543 111.77 219.967 110.414 218.83C109.384 218.017 107.758 219.155 105.589 222.134C104.559 223.543 102.878 224.897 101.143 225.764C98.6489 226.956 98.3236 227.281 98.432 228.69L98.5404 230.206L95.6126 229.827C93.2812 229.556 92.3053 229.719 90.5161 230.586C87.7509 231.994 87.534 231.994 85.9617 230.423C85.2026 229.665 83.5761 228.798 82.329 228.473C77.9373 227.281 75.8228 229.394 75.8228 234.92C75.8228 239.2 74.7384 241.421 73.9793 238.604C73.8167 237.954 72.895 236.491 71.9732 235.353C70.5093 233.565 70.0214 233.295 68.8286 233.62C68.0695 233.782 65.8465 234.27 63.8946 234.703C60.75 235.353 60.1536 235.732 58.3101 237.899C57.1173 239.254 55.7618 240.392 55.2197 240.392C54.7317 240.392 53.5931 240.933 52.7256 241.583C49.7978 243.913 42.2614 242.613 40.5806 239.579C40.0926 238.658 39.3336 237.899 38.8998 237.791C38.4661 237.737 35.8093 238.766 32.99 240.121C30.1706 241.529 26.7006 242.884 25.1825 243.155C20.7365 243.967 20.7365 244.509 25.4536 254.477C27.1886 258.216 28.6525 261.791 28.6525 262.441C28.6525 264.987 29.6826 266.288 33.3695 268.292C36.9479 270.297 37.219 270.351 42.0987 270.243C44.8639 270.188 47.6832 269.918 48.3881 269.647C49.1472 269.376 50.34 267.805 51.4786 265.692L53.2678 262.17L59.015 261.954C64.4911 261.791 64.8164 261.737 67.2562 259.949L69.8045 258.107L74.9011 260.057C79.5639 261.845 85.0942 263.091 91.8173 263.958C97.4561 264.662 109.113 267.046 110.577 267.805C112.746 268.888 113.884 268.78 118.493 266.938C120.716 266.017 122.722 265.313 122.885 265.313C123.644 265.313 123.481 268.509 122.722 269.105C122.288 269.484 121.909 270.188 121.909 270.73C121.909 271.705 124.891 274.685 126.3 275.173C127.276 275.498 126.192 279.019 124.349 281.782C123.589 282.866 122.993 284.057 122.993 284.383C122.993 284.708 123.752 286.333 124.674 287.958C125.65 289.692 126.734 292.942 127.385 295.868C128.849 302.802 129.12 303.236 131.343 303.236C133.674 303.236 134.108 303.832 133.295 306.27C132.698 308.003 132.807 308.491 134.542 312.175C137.253 317.863 138.554 318.243 145.331 315.696C148.151 314.667 148.53 314.342 149.018 312.5C149.506 310.55 152.488 307.082 153.139 307.678C153.301 307.841 152.922 308.978 152.325 310.225C150.97 312.879 149.398 317.051 148.205 321.276C147.337 324.202 147.337 324.581 148.259 327.019L149.181 329.674L145.331 334.116C143.162 336.608 141.427 338.775 141.427 338.992C141.427 339.967 143.162 340.509 147.934 341.105C153.844 341.809 155.687 341.484 160.079 339.1L163.115 337.475L160.838 340.184C157.205 344.41 156.5 345.439 155.795 347.552C154.928 349.936 155.47 351.615 157.205 351.994C157.91 352.157 158.777 352.915 159.157 353.62C159.537 354.378 160.35 355.407 160.946 355.895C162.031 356.762 162.031 356.924 161.217 358.441C160.784 359.362 159.916 360.337 159.374 360.662C157.802 361.475 152.976 361.313 151.133 360.337C148.693 359.091 146.632 359.525 146.416 361.313C146.253 362.504 146.632 363.046 148.584 364.292C150.862 365.809 150.916 365.809 149.452 365.972C146.578 366.297 145.331 370.36 147.175 373.069C147.934 374.098 147.934 374.423 147.337 374.802C146.904 375.073 146.144 375.29 145.602 375.29C144.518 375.29 140.831 377.078 138.554 378.703C137.09 379.678 136.765 379.732 134.054 379.082C131.234 378.378 131.072 378.432 127.602 380.112C125.596 381.087 123.21 382.712 122.18 383.741C120.228 385.638 118.384 386.071 116.433 384.988C115.836 384.717 114.21 382.116 112.854 379.299C109.276 372.039 105.914 368.301 103.529 369.06C102.282 369.439 101.631 370.902 100.492 376.103C99.9501 378.486 99.0826 381.358 98.4862 382.55C97.2392 384.933 97.4561 386.504 99.4621 389.538L100.818 391.651L98.92 395.714C96.7512 400.211 96.6428 401.078 97.8356 402.649C98.4862 403.516 98.5946 404.599 98.2693 407.796C97.7814 413.701 97.9982 413.863 106.727 413.267C113.179 412.834 115.619 412.292 121.529 409.963C124.023 408.987 124.186 408.987 127.764 410.017C136.06 412.401 149.886 412.238 157.856 409.638L162.464 408.121L164.47 409.746C165.555 410.613 167.073 411.805 167.778 412.346C169.459 413.755 174.338 413.701 181.82 412.238C188.706 410.829 190.116 410.288 190.767 408.662C191.146 407.633 191.688 407.308 193.315 407.146C197.435 406.82 200.146 407.633 204.647 410.613C207.032 412.184 211.749 414.947 215.111 416.735C225.033 422.044 234.413 429.52 250.407 444.906C258.16 452.383 263.745 456.5 268.787 458.504C271.227 459.425 273.45 459.75 279.956 460.021C289.499 460.455 294.324 461.051 297.957 462.297C301.102 463.38 316.825 470.315 326.91 475.136C336.994 479.904 337.482 480.067 341.332 479.254C347.242 478.062 348.218 478.062 352.826 479.525C360.797 482.017 363.345 481.583 387.797 473.349C415.612 464.03 416.804 463.164 424.449 446.261C426.564 441.656 428.678 437.051 429.221 436.021C431.444 431.687 438.167 427.624 448.089 424.699C455.3 422.532 461.806 421.502 474.059 420.527C488.861 419.335 499.705 417.656 501.332 416.355C501.711 415.976 503.175 413.809 504.53 411.48C505.832 409.204 509.519 404.057 512.663 400.103C515.754 396.148 518.953 391.76 519.657 390.351C520.362 388.942 522.26 386.721 524.049 385.204C525.784 383.796 531.314 378.432 536.411 373.34C546.062 363.588 549.152 361.15 553.382 359.741C554.791 359.254 557.882 357.52 560.267 355.787C562.653 354.107 565.201 352.374 565.852 352.048C568.996 350.369 573.822 349.177 581.63 348.148C590.955 346.902 592.148 346.522 591.877 344.789C591.66 343.326 594.425 340.076 595.889 340.076C596.431 340.076 597.353 339.588 597.949 338.992L599.034 337.908L600.389 339.317C601.148 340.13 601.636 340.942 601.474 341.159C601.311 341.376 599.739 341.701 597.895 341.809C594.425 342.08 592.853 343.109 593.178 344.951C593.341 345.601 594.317 345.764 598.492 345.764C606.136 345.764 608.685 345.222 609.498 343.434C609.823 342.622 610.908 341.051 611.884 339.967C613.456 338.125 613.619 337.746 613.293 335.308C612.643 329.62 616.167 326.423 631.077 319.489C634.601 317.863 635.74 316.455 636.716 312.446C637.149 310.495 637.854 307.678 638.288 306.215C638.722 304.699 639.21 302.586 639.427 301.448C639.644 300.094 640.619 298.468 642.246 296.626C647.831 290.342 649.349 285.845 646.529 284.003C644.903 282.92 643.927 283.353 642.138 285.899C641.379 287.037 638.939 289.692 636.77 291.75C632.595 295.814 631.131 296.247 629.884 293.918C629.017 292.292 629.613 291.534 632.812 290.071C636.065 288.608 640.023 285.304 640.511 283.678C640.728 283.082 640.565 282.27 640.24 281.836C639.644 281.132 640.294 281.024 644.794 281.024C648.969 281.024 650.108 280.861 650.325 280.211C650.921 278.694 650.054 276.906 648.047 275.552C646.963 274.848 645.174 273.006 644.089 271.543L642.138 268.834L644.361 270.568C649.511 274.631 653.415 274.848 660.03 271.597C664.259 269.538 665.885 267.642 666.536 264.121C666.807 262.712 666.59 261.899 665.506 260.491C663.825 258.27 663.608 256.428 665.072 256.807C668.922 257.89 669.843 257.782 673.151 255.615C676.892 253.177 677.434 252.581 676.621 251.552C676.133 251.01 676.458 250.36 677.922 248.897C679.277 247.543 679.82 246.513 679.82 245.267C679.82 243.155 678.518 240.825 676.675 239.741C675.374 238.929 675.374 238.929 678.356 238.55C681.5 238.116 684.97 236.274 684.97 234.974C684.97 234.595 683.723 233.62 682.205 232.807C679.006 231.182 674.723 228.094 670.982 224.843C668.163 222.351 667.675 222.134 662.47 221.484C659.054 221.105 659 221.051 660.572 220.401C661.494 220.076 662.47 219.371 662.849 218.884C663.446 218.071 663.717 218.071 665.831 218.884C667.132 219.371 670.114 221.376 672.5 223.326C677.597 227.498 679.44 228.256 682.368 227.389C685.621 226.468 688.495 223.489 688.495 220.997C688.495 220.292 689.362 218.884 690.446 217.746C694.079 214.008 694.296 212.978 692.886 206.802C692.615 205.448 692.344 203.118 692.29 201.602C692.29 195.859 689.796 195.588 686.597 201.006C685.404 203.01 684.266 204.635 684.103 204.635C683.181 204.635 683.127 202.739 683.994 201.818C684.645 201.06 684.97 199.868 684.97 198.026C684.97 195.859 684.699 195.155 683.669 194.288C682.964 193.746 681.771 193.258 680.958 193.258H679.549L681.338 191.85C683.669 190.008 685.404 186.541 685.458 183.615C685.513 181.665 685.242 181.015 683.994 179.931C681.717 177.981 678.518 177.331 675.048 178.089C673.422 178.414 672.012 178.577 671.849 178.414C671.633 178.252 671.795 178.089 672.121 178.089C673.151 178.089 676.024 175.326 676.024 174.351C676.024 173.809 675.536 172.942 674.94 172.401C673.801 171.371 673.801 171.371 676.133 170.288C679.169 168.825 680.253 166.766 680.958 161.24C681.229 158.748 681.717 155.444 681.988 153.981C682.314 152.03 682.259 150.947 681.771 150.188C681.392 149.592 680.85 148.13 680.47 146.938C679.765 144.392 675.265 139.082 673.91 139.082C673.368 139.082 672.392 139.678 671.687 140.437C670.169 142.062 669.518 142.17 669.518 140.816C669.518 140.274 668.922 139.245 668.163 138.541C667.404 137.836 666.807 136.861 666.807 136.374C666.807 134.748 664.693 132.635 662.415 131.985C660.735 131.444 659.325 131.444 656.072 131.985C652.439 132.581 651.572 132.527 649.457 131.769C646.312 130.631 635.415 123.371 633.3 120.988L631.673 119.091L632.704 114.92C633.951 110.206 633.896 107.769 632.541 106.956C631.836 106.468 630.264 107.01 625.221 109.448C619.637 112.103 609.173 115.949 604.293 117.087L602.829 117.466L603.696 115.407C604.293 114.107 604.564 112.103 604.51 109.99C604.401 106.793 604.51 106.468 606.516 104.301C609.769 100.617 611.45 98.1794 613.293 94.2246C615.679 89.2404 615.679 84.9062 613.293 78.2426C612.371 75.6422 611.016 72.4999 610.311 71.2539C608.251 67.4616 604.835 67.1365 601.907 70.3871C601.094 71.3081 599.739 72.7708 598.98 73.5835L597.516 75.1004L595.509 74.071C594.371 73.4751 591.66 72.6083 589.491 72.1207L585.479 71.2539V67.7866C585.479 63.7234 585.099 63.3984 581.792 64.5361C579.623 65.2945 579.515 65.2945 579.515 64.3194C579.515 63.5609 580.545 62.8024 582.985 61.6105C591.064 57.7641 594.967 48.7708 591.226 42.4322C590.413 41.0236 589.817 39.7776 589.925 39.6151C590.033 39.5067 591.66 38.4232 593.503 37.2313C595.672 35.8769 597.19 34.4142 597.787 33.2223C598.383 31.922 599.359 31.0552 600.877 30.4593C610.203 26.5586 614.594 23.6331 613.835 21.737C613.456 20.7076 612.046 20.7618 606.136 22.3329C603.317 23.0913 600.552 23.6873 600.064 23.6873C599.576 23.6873 598.112 22.8205 596.865 21.7911L594.642 19.895L592.582 20.9243C588.244 23.1455 582.063 29.9175 578.322 36.5812C576.316 40.1026 574.69 40.9695 569.864 41.1862C567.749 41.2404 565.689 41.6196 565.201 42.053C563.629 43.3532 563.304 46.062 564.171 50.5044C564.605 52.834 564.822 54.7844 564.659 54.9469C564.008 55.6512 561.514 54.351 558.153 51.588C555.333 49.3126 553.598 48.3374 550.616 47.4706C548.448 46.8747 546.387 46.2788 546.062 46.1162C545.682 46.0079 545.357 45.1952 545.357 44.3284C545.357 43.4074 544.869 42.2697 544.273 41.6738L543.188 40.6444L544.815 36.7979C547.472 30.4593 546.821 26.3419 542.646 23.2539C540.477 21.6286 534.513 18.8114 533.266 18.8114C531.423 18.8114 530.61 13.8272 531.911 10.9017C532.507 9.60146 532.453 9.38476 531.586 8.84301C528.278 6.89267 524.103 3.42543 523.67 2.28774C522.965 0.499944 521.772 0.554094 520.362 2.55859ZM163.603 303.019C162.302 304.428 159.374 306.216 158.994 305.836C158.723 305.565 163.766 301.665 164.416 301.665C164.687 301.611 164.362 302.261 163.603 303.019ZM176.941 327.615C177.103 327.886 177.049 328.157 176.724 328.157C176.453 328.157 174.935 329.24 173.362 330.595C169.404 334.008 167.181 333.899 170.868 330.486C174.176 327.398 176.182 326.423 176.941 327.615ZM183.718 329.836C183.718 330.107 183.067 329.999 182.254 329.674C179.869 328.644 179.543 328.157 181.712 328.807C182.851 329.132 183.718 329.62 183.718 329.836ZM587.702 339.155C588.515 339.913 589.274 341.159 589.383 341.863L589.654 343.218L584.015 343.272L578.376 343.326L578.539 341.863C578.647 340.834 579.081 340.292 579.786 340.184C581.413 339.913 582.226 338.559 581.684 337.096L581.196 335.85L583.744 336.825C585.154 337.367 586.943 338.396 587.702 339.155Z" stroke="#0061FF" stroke-width="10" stroke-linejoin="round" mask="url(#path-1-inside-1)"/>
</svg>
